<?xml version="1.0" encoding="utf-8"?>
<!-- Generator: Adobe Illustrator 24.0.1, SVG Export Plug-In . SVG Version: 6.00 Build 0)  -->
<svg version="1.1" xmlns="http://www.w3.org/2000/svg" xmlns:xlink="http://www.w3.org/1999/xlink" x="0px" y="0px"
	 viewBox="0 0 2048 2048" style="enable-background:new 0 0 2048 2048;" xml:space="preserve">
<style type="text/css">
	.st0{display:none;}
	.st1{display:inline;fill:#FFFFFF;}
	.st2{fill:#CB99F4;}
	.st3{fill:#FFFFFF;stroke:#000000;stroke-width:3;stroke-miterlimit:10;}
	.st4{fill:#111411;}
	.st5{fill:url(#SVGID_1_);}
	.st6{fill:#FECD2C;stroke:#000000;stroke-width:3;stroke-miterlimit:10;}
	.st7{fill:url(#SVGID_2_);}
	.st8{fill:#FECD2C;}
	.st9{fill:none;stroke:#FFFFFF;stroke-width:3;stroke-linecap:round;stroke-linejoin:round;stroke-miterlimit:10;}
	.st10{font-family:'Poppins-Bold';}
	.st11{font-size:44.0719px;}
	.st12{opacity:0.8;fill:#CB99F4;}
</style>
<g id="background" class="st0">
	<rect x="-1" y="-1" class="st1" width="2049" height="2049"/>
</g>
<g id="illustration">
	<g>
		<path class="st2" d="M1756.5,945c6.9,73,14.3,151-26,227.5c-78.6,149-239.9,106.5-441,266c-158.8,125.9-129.8,209.2-225.5,240
			c-239.2,76.9-760.3-333.6-692.5-733.5c42.7-252,301-391.7,358-422.5c70.1-37.9,285.2-154.2,448-71c82.3,42.1,89,103.3,196,143
			c113,42,151.5-9.3,231,33C1732.8,695.8,1751.5,892.7,1756.5,945z"/>
		<g>
			<path class="st3" d="M925.8,1332H565.8v-129.3c0-55.6,45.1-100.6,100.6-100.6h158.6c55.6,0,100.6,45.1,100.6,100.6V1332z"/>
			<g>
				<path class="st4" d="M972.9,996.9c0,0,262.3,155.9,318.4,320.8c56.1,164.8-27,270.3-27,270.3l-37.1-16.2
					c0,0-9.8-207.4-67.9-249.4c-58.1-42-435-160.7-265.4-341.1L972.9,996.9z"/>
				
					<linearGradient id="SVGID_1_" gradientUnits="userSpaceOnUse" x1="1777.5438" y1="2205.9661" x2="1867.6779" y2="2205.9661" gradientTransform="matrix(0.819 -0.5738 0.5738 0.819 -1493.942 839.907)">
					<stop  offset="1.300000e-07" style="stop-color:#D66827"/>
					<stop  offset="0.9995" style="stop-color:#C32727"/>
				</linearGradient>
				<path class="st5" d="M1227.3,1571.8c0,0-30.5,17.5-17,29.4c13.5,11.9,49.3,42.3,78.6,32.9c29.3-9.4,47.6-30.8,27.1-28.4
					c-20.5,2.4-21,13.9-28.5,8c-7.5-5.8-22.9-25.8-22.9-25.8L1227.3,1571.8z"/>
			</g>
			<path class="st6" d="M884.9,667.1c0,0-151.3-71.8-190.9-78.1c-23.9-3.8-72-34.9-82.3-11.4c-10.3,23.5-89.6,304.3-95.5,322.5
				c-5.9,18.2,23.5,34.8,49.9,44.1c26.4,9.4,211.6,52,211.6,52l55.8-26.4L884.9,667.1z"/>
			<path class="st6" d="M953.5,1265.4c0,0-318.1-6.4-354.7,0c-36.6,6.4-98.6,23.3-138.3,102.7c-39.7,79.4-83.5,209.5-87.6,231.4
				c-4.1,21.9,0.1,51.1,19.2,51.1c19.1,0,1283.1,0,1283.1,0h56.1c0,0,30.1-3.2,24.6-40.2c-5.5-37-93.1-264.2-135.6-321.7
				c-42.4-57.6-65.7-123.3-95.9-168.5c-18-27-53.2-72.4-81.9-100.7c-30.3-29.8-56.4-63.5-77.7-100.3c-10.8-18.5-22.2-32.9-31.3-32.1
				c-25.1,2.1-54.2,0.8-54.7,35.6c-0.6,34.8,105.1,187.9,122.7,211.2c17.6,23.3,109.3,241,110.7,246.5l-86.3,124.6l-8.9,12.7H949.4
				c0,0-47.9-68.8-54.8-115.4c-6.8-46.6,52-94.3,63-107.4C968.6,1281.9,972.9,1272.5,953.5,1265.4z"/>
			<path class="st4" d="M515.5,1650.7h369.6c0,0,8.2,176.3-184.8,176.3S515.5,1650.7,515.5,1650.7z"/>
			<path class="st4" d="M1244.6,1650.7h369.6c0,0,8.2,176.3-184.8,176.3S1244.6,1650.7,1244.6,1650.7z"/>
			<path class="st6" d="M1318.2,922.1c0,0-147.8,120.9-313.3-11.3c0,0,0,0,0,0c-7.7-6.2-15.5-12.9-23.3-20.2l61.2-139.6
				c0,0,5.2,32.2,21.5,67.9c20.2,44.3,57.5,94,122.9,93.5c115.7-0.8,107.2-21,106.9-21.8L1318.2,922.1z"/>
			<linearGradient id="SVGID_2_" gradientUnits="userSpaceOnUse" x1="1342.3862" y1="855.2458" x2="1303.157" y2="899.6483">
				<stop  offset="0" style="stop-color:#B53C7E"/>
				<stop  offset="0.5802" style="stop-color:#E77172"/>
				<stop  offset="0.9978" style="stop-color:#F3E4CD"/>
			</linearGradient>
			<path class="st7" d="M1294,890.5c0,0-9.3-19.5,2.3-19.1c11.6,0.4,22.8,14.8,18.1,15.7c-4.6,0.9-16.3-6.2-16.3-6.2
				s24.2,22.3,20,41.1L1294,890.5z"/>
			<path class="st3" d="M1064.3,818.8c-6.4,45.6-59.4,92-59.4,92s0,0,0,0c-7.7-6.2-15.5-12.9-23.3-20.2l61.2-139.6
				C1042.8,751,1048,783.2,1064.3,818.8z"/>
			<path class="st6" d="M1065.7,624.1l-28.3-115.6c0,0-64.2,2.2-54.1,55.5c0,0,0.8,9.2,4.7,20.6l0,0c-2.9,37.7-54.5,97.1-54.5,97.1
				l70.2,21.5l38.3-75.3l0,0C1049,627.7,1056.9,626.6,1065.7,624.1z"/>
			<path class="st4" d="M1006.4,516.3c0,0-10.1,88.2-27.9,98.8c0,0-4.3-38.8-13.8-53.2C955.1,547.6,962.1,503.3,1006.4,516.3z"/>
			<path class="st8" d="M991.2,592.6l-7.9-28.7c0,0-14.1,3.9-11,17.7C975.4,595.3,991.2,592.6,991.2,592.6z"/>
			<path class="st3" d="M1089,524.3l-1.3-5.2l-42.3,9c-2-9.5-11.5-44.5-40.5-43.4c-42.4,1.5-64.3,42.1-46.1,79.2l43-16.5L1089,524.3
				z"/>
			<path class="st3" d="M917.8,1019.1c0,0-119.1-9.6-140.4-44.7c0,0,4.2-37.7,15.3-87.7c0,0,0,0,0,0c9.2-41.7,23.3-91.8,43.8-135.8
				c28.2-60.6,68.6-109.3,125.4-107.2c0,0,67,23.4,80.1,103.2C1055,826.7,917.8,1019.1,917.8,1019.1z"/>
			<g>
				<path class="st3" d="M984.3,682.7c26.2,25,39.4,60.7,36.8,96.7c-0.9,12.6-2.2,27.2-4.2,42.5l0,0l-129.8,9.6
					c-3.2-56.6,8.7-108.3,20-143.5c0,0,0,0,0,0C932.9,649.4,961.8,661.2,984.3,682.7z"/>
				<path class="st6" d="M1289,967.6c-4.6-4.1-0.3-17.2-4.9-21.2c-4.7-4-1.6-15.7-5.6-18.6c-4-2.9-31.1,13.6-31.1,13.6
					c12.7-19.6-4.3-45.6-6-24.2c-1.8,21.4-14.9,41.4-14.9,41.4s-190.7,12.4-207.5-59.1c-5.9-25-5.3-52.5-1.9-77.7l-129.8,9.6
					c0.8,14.9,2.7,30.1,5.9,45.5c25.3,121.8,177.2,185.4,335.4,117.7c0,0,63.2-4.5,60.4-8.1C1286,982.9,1293.6,971.7,1289,967.6z"/>
			</g>
			<g>
				<g>
					<path class="st4" d="M860.9,990.4c0,0,310.9,174.2,363.1,365.8c32.9,120.8,19.2,161.9,19.2,161.9h-115
						c0,0,11.4-108.6-54.8-156.4s-496.1-183.3-302.6-389L860.9,990.4z"/>
				</g>
			</g>
			<polygon class="st3" points="952.4,643.9 969,632.5 1015,669.7 1015,707.2 			"/>
			<circle class="st4" cx="1304.2" cy="927.6" r="56.8"/>
			<path class="st9" d="M933.5,1036c78.8,55.9,138.1,108.8,179.5,149c51,49.5,75.3,80.4,94,120c19.8,41.9,27.1,80.3,30.1,106.3"/>
			<text transform="matrix(0.9472 0.3207 -0.3207 0.9472 618.7327 662.3163)"><tspan x="0" y="0" class="st10 st11">FOOD</tspan><tspan x="0" y="37.2" class="st10 st11">DELIVERY</tspan></text>
			<g>
				<g>
					<g>
						<path class="st6" d="M795.2,499.9h-99.5c-65.9,0-119.4-53.4-119.4-119.4v-40.1c0-65.9,53.4-119.4,119.4-119.4h99.5
							c65.9,0,119.4,53.4,119.4,119.4v40.1C914.6,446.4,861.1,499.9,795.2,499.9z"/>
					</g>
					<g>
						<g>
							
								<ellipse transform="matrix(0.7071 -0.7071 0.7071 0.7071 -36.5303 632.7097)" class="st3" cx="745.5" cy="360.5" rx="90.5" ry="90.5"/>
						</g>
						<g>
							<path class="st4" d="M798.4,350.4l-56.3,4.6v-22.5c0-1.8-1.2-3.5-3-3.9c-2.4-0.5-4.6,1.4-4.6,3.7v26.8c0,0.1,0,0.1,0,0.2
								c0,0.1,0,0.1,0,0.2c0,0.1,0,0.2,0,0.2c0,0.1,0,0.2,0.1,0.3c0,0.1,0.1,0.3,0.1,0.4c0,0.1,0.1,0.2,0.1,0.3
								c0.1,0.1,0.1,0.2,0.2,0.3c0.1,0.1,0.1,0.2,0.2,0.3c0.1,0.1,0.2,0.2,0.3,0.3c0.1,0.1,0.1,0.2,0.2,0.2c0.1,0.1,0.2,0.2,0.3,0.3
								c0.1,0.1,0.2,0.1,0.2,0.2c0.1,0.1,0.2,0.1,0.4,0.2c0.1,0,0.2,0.1,0.3,0.1c0.1,0.1,0.3,0.1,0.5,0.1c0.1,0,0.2,0.1,0.2,0.1
								c0.2,0,0.5,0.1,0.7,0.1c0,0,0,0,0,0c0,0,0,0,0,0c0,0,0,0,0,0c0.1,0,0.2,0,0.3,0l60.3-4.9c1.8-0.1,3.4-1.5,3.6-3.3
								C802.7,352.2,800.7,350.2,798.4,350.4z"/>
						</g>
					</g>
				</g>
			</g>
			<g>
				<g>
					<g>
						<path class="st6" d="M1580.3,810h-99.5c-65.9,0-119.4-53.4-119.4-119.4v-40.1c0-65.9,53.4-119.4,119.4-119.4h99.5
							c65.9,0,119.4,53.4,119.4,119.4v40.1C1699.6,756.6,1646.2,810,1580.3,810z"/>
					</g>
					<g>
						<g>
							<g>
								<path class="st3" d="M1611,644.5c0-44.4-36-80.4-80.4-80.4c-44.4,0-80.4,36-80.4,80.4c0,14.8,4.1,28.7,11.1,40.6h0l0.2,0.3
									c3.1,5.2,6.7,10,10.9,14.4l58.3,77.2l58.2-77.2c4.2-4.4,7.9-9.3,11-14.5l0.2-0.2h0C1606.9,673.2,1611,659.4,1611,644.5z
									 M1533.4,679.5c-21.8,1.7-39.9-16.3-38.2-38.2c1.4-17.2,15.3-31.1,32.4-32.4c21.8-1.7,39.9,16.3,38.2,38.2
									C1564.5,664.2,1550.5,678.1,1533.4,679.5z"/>
							</g>
						</g>
					</g>
				</g>
			</g>
			<g>
				<g>
					<g>
						<path class="st6" d="M500.7,972.1H230.1c-18.6,0-33.6,15.1-33.6,33.6v68.4c3.3-1.1,6.8-1.6,10.4-1.6h110.8
							c18.6,0,33.6,15.1,33.6,33.6v66.7h149.4c18.6,0,33.6-15.1,33.6-33.6v-133.5C534.3,987.2,519.2,972.1,500.7,972.1z"/>
					</g>
					<g>
						<g>
							<path class="st6" d="M228.8,1088.9c0-9.1,7.3-16.4,16.4-16.4h-38.4c-3.6,0-7.1,0.6-10.4,1.6v65.1c0,18.6,15.1,33.6,33.6,33.6
								h121.2v-66.7c0-0.3,0-0.5,0-0.8h-106C236.2,1105.3,228.8,1098,228.8,1088.9z"/>
						</g>
					</g>
					<g>
						<g>
							<g>
								<path class="st3" d="M456.5,1034.5c0-7.6,3.4-14.5,8.7-19.2c-4.5-3.9-10.3-6.3-16.7-6.3c-14.1,0-25.5,11.4-25.5,25.5
									c0,14.1,11.4,25.5,25.5,25.5c6.4,0,12.3-2.4,16.7-6.3C459.9,1049,456.5,1042.2,456.5,1034.5z"/>
							</g>
						</g>
						<g>
							<g>
								<path class="st3" d="M482,1009.1c-6.4,0-12.3,2.4-16.8,6.3c5.3,4.7,8.7,11.5,8.7,19.2s-3.4,14.5-8.7,19.2
									c4.5,3.9,10.3,6.3,16.8,6.3c14.1,0,25.5-11.4,25.5-25.5C507.5,1020.5,496.1,1009.1,482,1009.1z"/>
							</g>
						</g>
						<g>
							<ellipse class="st3" cx="465.2" cy="1034.5" rx="8.7" ry="19.2"/>
						</g>
					</g>
					<g>
						<path class="st3" d="M273.9,1001.4c0,4.3-3.5,7.7-7.7,7.7h-37c-4.3,0-7.7-3.5-7.7-7.7c0-4.3,3.5-7.7,7.7-7.7h37
							C270.5,993.6,273.9,997.1,273.9,1001.4z"/>
					</g>
				</g>
			</g>
			<circle class="st12" cx="1342" cy="391" r="31"/>
			<circle class="st12" cx="1820.5" cy="1190.5" r="31"/>
			<circle class="st12" cx="334.5" cy="1368.5" r="31"/>
		</g>
	</g>
</g>
</svg>
